<!--?xml version="1.0" encoding="utf-8"?-->
<!-- Generator: Adobe Illustrator 19.1.1, SVG Export Plug-In . SVG Version: 6.00 Build 0)  -->
<svg version="1.1" id="_x31_0" xmlns="http://www.w3.org/2000/svg" xmlns:xlink="http://www.w3.org/1999/xlink" x="0px" y="0px" viewBox="0 0 512 512" style="width: 256px; height: 256px; opacity: 1;" xml:space="preserve">
<style type="text/css">
	.st0{fill:#374149;}
</style>
<g>
	<path class="st0" d="M511.95,211.267l0.05-0.156l-5.094-0.246c-0.39,0-34.23-1.648-83.817-14.839
		c-47.238-12.696-51.39-78.402-51.469-79.063l-0.156-3.874H140.614l-0.161,3.874c-0.078,0.661-4.07,66.367-51.386,79.063
		c-49.586,13.109-83.504,14.839-83.898,14.839l-3.961,0.188l-1.055,0.008l0.016,0.042L0,211.111l8.461,25.969h10.653
		c19.664,16.82,55.461,45.508,84.523,58.946v60.843H85.699c-4.309,0-7.914,3.711-7.914,8.328v16.734
		c0,4.618,3.606,8.329,7.914,8.329h17.938v58.695h26.398V390.26h251.926v58.695h26.402V390.26h18.016
		c4.386,0,7.832-3.711,7.832-8.329v-16.734c0-4.617-3.446-8.328-7.832-8.328h-18.016v-61.5
		c28.902-13.274,64.39-41.633,83.894-58.289h11.359l6.61-20.477l1.766-5.332L511.95,211.267z M408.598,268.896v-22.332l37.836-2.558
		c-10.332,7.691-22.285,15.957-33.859,22.656C411.254,267.404,409.879,268.225,408.598,268.896z M378.516,284.732v72.137h-32.825
		v-72.137H378.516z M378.516,265.526h-32.825v-21.352h32.825V265.526z M331.828,244.174v21.352h-68.855v-21.352H331.828z
		 M331.828,284.732v72.137h-68.855v-72.137H331.828z M144.606,187.451c10.183-13.684,16.922-29.43,21.152-44.27
		c0.469-1.813,2.035-2.969,3.836-2.969h41.286c0.386,0,0.734,0.082,1.078,0.176c0.129,0.035,0.258,0.07,0.383,0.121
		c0.656,0.258,1.199,0.687,1.621,1.218c0.074,0.094,0.149,0.184,0.219,0.286c0.359,0.55,0.582,1.18,0.668,1.84
		c0.027,0.203,0.042,0.402,0.038,0.606c-0.003,0.629-0.144,1.262-0.441,1.855c-0.09,0.18-0.199,0.347-0.313,0.519
		c-0.195,0.278-0.39,0.559-0.668,0.801c-15.746,14.262-21.859,29.348-34.39,45.094c-0.707,0.989-1.801,1.485-2.977,1.485h-28.281
		C144.45,194.213,142.57,190.256,144.606,187.451z M249.106,284.732v72.137h-68.934v-72.137H249.106z M249.106,244.174v21.352
		h-68.934v-21.352H249.106z M166.305,284.732v72.137h-32.821v-72.137H166.305z M133.484,265.526v-21.352h32.821v21.352H133.484z
		 M103.406,269.603c-10.715-5.855-23.379-14.242-37.684-24.938l37.758,2.555v15.293L103.406,269.603z" style="fill: rgb(58, 171, 210);"></path>
	<path class="st0" d="M371.102,102.97l3.942-31.961c0-4.539-2.535-7.965-5.902-7.965c-1.266,0-2.508,0.519-3.504,1.465l-9,8.574
		h-201.18l-9-8.574c-0.992-0.946-2.234-1.465-3.5-1.465c-3.367,0-5.902,3.426-5.871,8.5l3.906,31.426H371.102z" style="fill: rgb(58, 171, 210);"></path>
	<path class="st0" d="M286.016,416.85h-59.938c-7.371,0-13.367,6.312-13.367,14.074v18.027h86.675v-18.027
		C299.386,423.162,293.39,416.85,286.016,416.85z" style="fill: rgb(58, 171, 210);"></path>
</g>
</svg>
