<!--?xml version="1.0" encoding="utf-8"?-->
<!-- Generator: Adobe Illustrator 18.1.1, SVG Export Plug-In . SVG Version: 6.00 Build 0)  -->

<svg version="1.1" id="_x31_0" xmlns="http://www.w3.org/2000/svg" xmlns:xlink="http://www.w3.org/1999/xlink" x="0px" y="0px" viewBox="0 0 512 512" style="width: 256px; height: 256px; opacity: 1;" xml:space="preserve">
<style type="text/css">
	.st0{fill:#374149;}
</style>
<g>
	<path class="st0" d="M256,0C114.614,0,0,114.614,0,256c0,141.383,114.614,256,256,256c141.383,0,256-114.617,256-256
		C512,114.614,397.383,0,256,0z M256,448c-105.871,0-192-86.133-192-192c0-105.871,86.129-192,192-192c105.867,0,192,86.129,192,192
		C448,361.867,361.867,448,256,448z" style="fill: rgb(223, 86, 86);"></path>
	<path class="st0" d="M244.711,212.953l2.855,3.43c6.886,8.374,6.43,22.347-1.434,43.957c-0.574,1.562-0.386,3.168,0.554,4.554
		c1.086,1.562,3.031,2.531,5.074,2.531c1.672,0,3.172-0.621,4.336-1.793c18.84-19.027,28.074-34.558,27.442-46.168
		c-0.516-9.566-4.574-15.41-7.871-19.207c-2.75-3.695-5.672-7.187-8.351-10.386l-2.879-3.461
		c-6.883-8.371-6.426-22.336,1.422-43.926c0.582-1.554,0.402-3.16-0.546-4.582c-1.086-1.562-3.031-2.535-5.078-2.535
		c-1.664,0-3.211,0.649-4.328,1.797c-18.844,19.039-28.074,34.574-27.446,46.168c0.523,9.586,4.586,15.426,7.875,19.203
		C239.05,206.195,241.953,209.664,244.711,212.953z" style="fill: rgb(223, 86, 86);"></path>
	<path class="st0" d="M181.778,235.942l2.394,2.878c5.574,6.77,5.16,18.207-1.305,35.985l-0.641,2.691l1.18,1.699
		c1.031,1.485,2.863,2.406,4.781,2.406c1.543,0,2.989-0.598,4.086-1.695c15.84-16.004,23.602-29.118,23.062-38.977
		c-0.45-8.172-3.91-13.164-6.691-16.375c-2.301-3.094-4.754-6.015-7.008-8.703L199.262,213c-5.57-6.782-5.152-18.226,1.324-36.023
		l0.626-2.68l-1.195-1.699c-1.035-1.469-2.864-2.382-4.766-2.382c-1.543,0-2.989,0.598-4.086,1.695
		c-15.84,16.004-23.598,29.121-23.058,38.973c0.445,8.179,3.906,13.167,6.691,16.378
		C177.043,230.274,179.434,233.137,181.778,235.942z" style="fill: rgb(223, 86, 86);"></path>
	<path class="st0" d="M310.371,235.926l2.406,2.891c5.57,6.777,5.156,18.214-1.305,35.988l-0.656,2.722l1.222,1.711
		c1.039,1.457,2.859,2.363,4.75,2.363c1.543,0,2.993-0.598,4.09-1.695c15.836-16,23.598-29.118,23.058-38.981
		c-0.446-8.175-3.906-13.164-6.687-16.371c-2.333-3.133-4.813-6.094-7.008-8.703L327.867,213c-5.57-6.782-5.152-18.222,1.309-35.988
		l0.656-2.695l-1.211-1.719c-1.035-1.469-2.863-2.382-4.77-2.382c-1.542,0-2.988,0.598-4.086,1.695
		c-15.836,16-23.594,29.113-23.058,38.969c0.445,8.183,3.91,13.171,6.687,16.371C305.578,230.191,307.902,232.977,310.371,235.926z" style="fill: rgb(223, 86, 86);"></path>
	<path class="st0" d="M391.43,272.012c-0.199-2.547-0.629-5.489-1.16-7.825l-0.879-3.16l-0.469-3.508l-0.496,0.004
		c-0.641-1.938-1.351-3.762-2.117-5.441c-1.582-3.535-3.352-6.742-5.242-9.5c-3.633-5.395-7.199-8.93-9.574-11.126
		c-1.258-1.16-2.266-1.969-2.926-2.488l-6.883-5.473l-5.988-4.946l0.11,0.27l-0.258-0.206l5.882,14.254
		c0.02,0.05,0.633,1.539,1.574,4.18c0.914,2.613,2.23,6.668,3.129,11.636c0.32,1.93,0.758,4.867,0.851,8.067
		c0.039,1.242,0.008,2.511-0.027,3.738c-0.019,0.176,0,0.325-0.027,0.5l-0.168,0.188l0.043,1.441l-0.336,3.727
		c-0.019,0.332-0.098,0.574-0.16,0.816c-0.102,0.406-0.406,1.914-0.406,1.914c-0.074,0.39-0.145,0.785-0.309,1.343l-0.652,2.466
		c-0.149,0.488-0.79,2.293-0.79,2.293c-1.121,2.93-2.488,6.316-4.598,9.515c-3.984,6.426-9.453,12.29-16.277,17.446
		c-6.684,5.141-14.93,9.738-24.469,13.656c-9.383,3.73-19.481,6.57-30.051,8.446c-5.367,1.008-10.945,1.59-16.133,2.094
		c-2.742,0.222-5.492,0.398-8.332,0.508c-1.297,0.07-2.594,0.133-4.074,0.133l-3.769,0.054l-6.946-0.106l-2.043-0.105
		c-2.531-0.098-5.285-0.286-7.969-0.497c-5.519-0.542-10.906-1.117-16.234-2.129c-10.617-1.898-20.707-4.742-29.961-8.441
		c-9.586-3.942-17.824-8.539-24.512-13.688c-6.793-5.125-12.254-10.98-16.25-17.414c-3.625-5.794-5.957-12.145-6.922-18.79
		l-0.363-3.008l0.034-1.445l-0.125-0.125l-0.008-0.172c-0.058-1.458-0.105-2.871-0.05-4.375c0.066-2.43,0.328-4.91,0.84-7.988
		c0.882-4.91,2.141-8.832,3.121-11.664c0.969-2.703,1.57-4.188,1.586-4.234l3.094-7.602l2.828-6.578l-0.222,0.18l0.125-0.305
		l-12.942,10.402c-0.683,0.538-1.691,1.351-2.953,2.5c-2.363,2.175-5.93,5.691-9.578,11.078c-1.91,2.77-3.687,5.973-5.262,9.473
		c-0.852,1.824-1.637,3.906-2.317,6.058l-0.324,0.985l-0.066,0.062l-1.355,5.488c-2.192,10.227-1.73,21.738,1.301,32.414
		c1.574,5.566,3.984,11.359,7.164,17.246c2.805,5.117,6.508,10.363,11.332,16.046c8.281,9.691,19.023,18.355,31.965,25.782
		c12.27,6.89,25.621,12.105,39.66,15.492c6.512,1.617,13.477,2.859,21.531,3.824c3.516,0.379,7.066,0.758,10.809,0.906l2.882,0.16
		l7.325,0.172l5.71-0.114c1.832-0.019,3.664-0.117,5.418-0.226c3.453-0.148,6.894-0.515,10.867-0.938
		c7.922-0.965,14.89-2.21,21.274-3.812c14.117-3.414,27.469-8.633,39.702-15.52c12.91-7.418,23.649-16.086,31.922-25.77
		c4.938-5.824,8.535-10.922,11.324-16.05c3.195-5.91,5.606-11.703,7.149-17.199c1.582-5.512,2.476-11.262,2.66-17.184l0.011-1.133
		c0.016-0.949,0.028-1.882-0.007-2.949L391.43,272.012z" style="fill: rgb(223, 86, 86);"></path>
</g>
</svg>
